        <svg
          xmlns="http://www.w3.org/2000/svg"
          fill="none"
          class="nav_logo_svg"
          viewBox="0 0 100 70"
        >
          <g fill="currentColor" clip-path="url(#a)">
            <path d="M32.188 35.31a253 253 0 0 0-4.867-3.918 44 44 0 0 0-1.92.784l2.104 4.874c-1.687.73-3.286 1.634-4.978 2.354l-6.558-15.199c1.726-.719 3.352-1.634 5.063-2.386q1.062-.465 2.147-.877c1.815-.692 3.9-1.06 5.78-.402 1.578.547 2.703 1.818 3.359 3.326.745 1.744.683 3.568-.616 5.006a171 171 0 0 1 6.03 5.049 48 48 0 0 0-5.543 1.39zm-6.48-7.396c.58-.218 1.188-.508 1.566-1.017.272-.435.225-.967.012-1.421-.199-.485-.565-.903-1.078-1.05-.636-.15-1.301.014-1.896.25q-.919.359-1.821.754l1.396 3.234q.903-.394 1.821-.75M49.199 33.862a291 291 0 0 0-1.53-2.614c-1.332-.342-2.712-.442-4.083-.471.145.822.279 1.647.417 2.47-1.637.003-3.266.205-4.884.434-.42-5.256-.867-10.509-1.47-15.747 1.693-.041 3.445.08 5.08.557 2.31 3.822 4.433 7.751 6.78 11.553a208 208 0 0 0 3.102 4.874c-1.218-.193-2.27-.65-3.413-1.055M41.98 22.014c.33 1.66.632 3.326.938 4.991.791.055 1.582.118 2.363.264a435 435 0 0 0-3.301-5.255M54.83 35.127c-2.17-5.107-4.343-10.213-6.51-15.322 1.59.049 3.177 0 4.757-.194l6.539 15.286c-1.59.185-3.186.29-4.787.23M72.966 31.18c-3.011-1.817-5.984-3.7-8.885-5.689l3.336 7.743a48 48 0 0 1-5.058 1.24l-6.55-15.266a46 46 0 0 0 4.636-1.085c2.88 2.007 5.835 3.907 8.828 5.74l-3.315-7.683c1.23-.52 2.4-1.141 3.6-1.723q.67-.323 1.355-.62l6.556 15.196c-1.532.654-2.982 1.468-4.503 2.146M30.065 57.005 23.508 41.81c1.826-.778 3.554-1.755 5.384-2.528 2.07-.87 4.431-1.1 6.492-.072 2.081 1.04 3.4 3.041 4.32 5.11.77 1.983 1.414 4.16.546 6.224-.84 1.982-2.823 3.127-4.729 3.908-1.365.562-2.661 1.239-3.987 1.883a37 37 0 0 1-1.469.671m4.143-6.45c.71-.275 1.24-.855 1.337-1.628.123-1.068-.276-2.157-.69-3.121-.421-.972-.95-2.01-1.817-2.66-.643-.475-1.455-.545-2.185-.236q-.624.257-1.24.532l3.305 7.66q.64-.284 1.29-.546M43.785 51.881 37.23 36.626c3.094-.68 6.289-1.115 9.46-.94l1.511 3.564c-1.653-.111-3.337-.03-4.98.174q.481 1.125.961 2.248c1.559-.19 3.124-.234 4.692-.188l1.51 3.565a29.3 29.3 0 0 0-4.681.177l1.016 2.377c1.736-.213 3.52-.28 5.263-.129l1.227 3.544c-3.134-.263-6.364.2-9.426.863M54.637 51.17q-3.241-7.672-6.487-15.342c1.055.135 2.055.416 3.029.822l4.846 11.592c1.194.51 2.54.707 3.824.788l1.3 3.757c-1.769-.16-3.183-.739-4.824-1.25a11 11 0 0 0-1.688-.367M70.833 51.95q-.894-1.327-1.783-2.657a39 39 0 0 1-3.795.588c.204.948.403 1.897.614 2.844a35 35 0 0 1-3.943.115 562 562 0 0 1-2.579-14.533l-.14-.866c1.862-.136 3.722-.45 5.544-.85a754 754 0 0 0 10.792 14.093 47 47 0 0 1-4.71 1.265m-7.618-11.495c.435 2.025.86 4.053 1.306 6.076.82-.107 1.635-.23 2.448-.378-1.258-1.895-2.516-3.79-3.754-5.698M77.045 50.174q-1.207-2.802-2.417-5.604a347 347 0 0 1-8.616-8.272c1.719-.427 3.413-.949 5.077-1.557a931 931 0 0 0 4.322 5.054q-.336-3.283-.687-6.565c1.596-.75 3.138-1.57 4.78-2.226-.09 3.29-.165 6.58-.186 9.87q-.005.866-.014 1.733l2.412 5.593a43 43 0 0 1-4.67 1.974" />
            <path d="M100 52.505c-2.432.371-4.834.956-7.176 1.707-2.072.664-4.117 1.453-6.071 2.413-1.562.768-3.099 1.548-4.722 2.185a48.4 48.4 0 0 1-8.08 2.395c-3.357.681-6.91 1.124-10.318.585-1.008-.16-1.904-.485-2.845-.837-2.223-.832-4.67-.894-7.015-.754-3.318.198-6.62.864-9.8 1.82-2.443.734-4.858 1.64-7.143 2.782-1.298.649-2.58 1.297-3.925 1.847q-.81.332-1.633.633l-.06.022a47.7 47.7 0 0 1-8.537 2.267c-2.747-6.36-5.497-12.717-8.241-19.078L4.966 28.553Q2.482 22.803 0 17.05c3.08-.429 6.113-1.198 9.045-2.23a47 47 0 0 0 2.3-.875c1.322-.541 2.582-1.179 3.856-1.818 2.073-1.038 4.254-1.877 6.462-2.575 2.95-.933 5.996-1.609 9.075-1.92 2.643-.269 5.514-.373 8.068.497.828.282 1.588.647 2.455.837 3.117.686 6.462.355 9.575-.165a47 47 0 0 0 7.273-1.833 44.6 44.6 0 0 0 6.079-2.536 46 46 0 0 1 4.213-1.908A49 49 0 0 1 77.317 0q4.38 10.13 8.756 20.262 4.601 10.647 9.2 21.295Q97.639 47.03 100 52.506M25.709 63.95a48 48 0 0 0 6.632-2.382c1.226-.547 2.395-1.203 3.613-1.763a47.6 47.6 0 0 1 8.543-2.963c3.364-.826 6.894-1.383 10.363-1.187 1.53.085 2.97.35 4.394.894 1.3.496 2.56.769 3.962.874 3.21.239 6.473-.21 9.606-.898a48.4 48.4 0 0 0 8.336-2.64c1.439-.605 2.8-1.347 4.207-2.012a46 46 0 0 1 6.182-2.37q.765-.236 1.537-.444-7.347-16.926-14.695-33.849l-4.132-9.516a48 48 0 0 0-6.42 2.381c-1.218.56-2.386 1.215-3.61 1.763a48 48 0 0 1-8.075 2.772c-3.346.83-6.854 1.392-10.306 1.22-1.58-.077-3.02-.348-4.484-.908-1.484-.566-2.997-.834-4.594-.908-3.205-.149-6.452.335-9.568 1.057a48.4 48.4 0 0 0-8.17 2.674c-1.371.59-2.672 1.31-4.024 1.94a47 47 0 0 1-6.453 2.425q-.83.245-1.669.462c4.98 11.473 9.956 22.947 14.936 34.42z" />
          </g>
          <defs>
            <clipPath id="a">
              <path fill="currentColor" d="M0 0h100v69.571H0z" />
            </clipPath>
          </defs>
        </svg>
